<!--?xml version="1.0" standalone="no"?-->
<svg id="sw-js-blob-svg" viewBox="0 0 100 100" xmlns="http://www.w3.org/2000/svg" version="1.1">
    <defs> 
        <linearGradient id="sw-gradient" x1="0" x2="1" y1="1" y2="0">
            <stop id="stop1" stop-color="rgba(248, 117, 55, 1)" offset="0%"></stop>
            <stop id="stop2" stop-color="rgba(251, 168, 31, 1)" offset="100%"></stop>
        </linearGradient>
    </defs>
<path fill="url(#sw-gradient)" d="M20.7,-35.2C27.2,-32.1,33.1,-27.3,35.4,-21.1C37.8,-15,36.6,-7.5,35.7,-0.5C34.8,6.5,34.2,13,31.9,19.2C29.7,25.5,25.7,31.5,20.1,36.1C14.4,40.7,7.2,43.9,0.6,42.8C-5.9,41.7,-11.9,36.2,-18.8,32.4C-25.8,28.6,-33.7,26.3,-37.3,21.2C-40.9,16,-40.1,8,-39.2,0.5C-38.3,-7,-37.4,-14,-34.1,-19.7C-30.8,-25.3,-25.2,-29.6,-19.1,-32.8C-13,-36.1,-6.5,-38.3,0.3,-38.9C7.1,-39.4,14.2,-38.2,20.7,-35.2Z" width="100%" height="100%" transform="translate(50 50)" stroke-width="0" style="transition: all 0.3s ease 0s;" stroke="url(#sw-gradient)"></path>
</svg>